# xmcd CD database file
#
# Track frame offsets:
#	150
#	7415
#	17465
#	41817
#	70567
#	94435
#	113232
#	134810
#	157887
#	169407
#	203625
#	212757
#	226047
#	240462
#	254985
#	276962
#	299112
#	316297
#
# Disc length: 4465 seconds
#
# Revision: 2
# Processed by: cddbd v1.4PL0 Copyright (c) Steve Scherf et al.
# Submitted via: CDex 1.40Beta9
#
DISCID=14116f12
DTITLE=Common - One Day It'll All Make Sense
DYEAR=1997
DGENRE=Hip-Hop
TTITLE0=Introspective
TTITLE1=Invocation
TTITLE2=Real Nigga Quotes
TTITLE3=Retrospect for Life (feat. Lauryn Hill)
TTITLE4=Gettin' Down at the Amphitheater (feat. De La Soul)
TTITLE5=Food for Funk
TTITLE6=G.O.D. (Gaining One's Definition) (feat. Cee-Lo)
TTITLE7=My City
TTITLE8=Hungry
TTITLE9=All Night Long (feat. Erykah Badu)
TTITLE10=Stolen Moments Pt. I
TTITLE11=Stolen Moments Pt. II (feat. Black Thought)
TTITLE12=1'2 Many...
TTITLE13=Stolen Moments Pt. III (Into/Outro: Q-Tip)
TTITLE14=Making a Name for Ourselves (feat. Canibus)
TTITLE15=Reminding Me (Of Sef) (feat. Chante Savage)
TTITLE16=Pop's Rap Part 2 - Fatherhood (feat. Lonnie "Pops" Lynn)
TTITLE17=Bonus Track
EXTD=YEAR: 1997 ID3G: 7
EXTT0=
EXTT1=
EXTT2=
EXTT3=
EXTT4=
EXTT5=
EXTT6=
EXTT7=
EXTT8=
EXTT9=
EXTT10=
EXTT11=
EXTT12=
EXTT13=
EXTT14=
EXTT15=
EXTT16=
EXTT17=
PLAYORDER=
